<mxfile host="app.diagrams.net" agent="Mozilla/5.0 (Macintosh; Intel Mac OS X 10_15_7) AppleWebKit/537.36 (KHTML, like Gecko) Chrome/136.0.0.0 Safari/537.36" version="27.0.6">
  <diagram name="Page-1" id="oQliVh8OqPWIIuBrWx94">
    <mxGraphModel dx="678" dy="811" grid="1" gridSize="10" guides="1" tooltips="1" connect="1" arrows="1" fold="1" page="1" pageScale="1" pageWidth="850" pageHeight="1100" math="0" shadow="0">
      <root>
        <mxCell id="0" />
        <mxCell id="1" parent="0" />
        <mxCell id="xgFi1MBsW7geCt6oC8qf-4" style="edgeStyle=orthogonalEdgeStyle;rounded=0;orthogonalLoop=1;jettySize=auto;html=1;exitX=0.5;exitY=1;exitDx=0;exitDy=0;entryX=0.5;entryY=0;entryDx=0;entryDy=0;endArrow=none;startFill=0;" parent="1" source="xgFi1MBsW7geCt6oC8qf-1" target="xgFi1MBsW7geCt6oC8qf-3" edge="1">
          <mxGeometry relative="1" as="geometry" />
        </mxCell>
        <mxCell id="xgFi1MBsW7geCt6oC8qf-9" value="EMPLOYEE" style="ellipse;whiteSpace=wrap;html=1;" parent="1" vertex="1">
          <mxGeometry x="450" y="520" width="100" height="50" as="geometry" />
        </mxCell>
        <mxCell id="xgFi1MBsW7geCt6oC8qf-11" value="WORK_ON" style="ellipse;whiteSpace=wrap;html=1;" parent="1" vertex="1">
          <mxGeometry x="130" y="680" width="100" height="50" as="geometry" />
        </mxCell>
        <mxCell id="xgFi1MBsW7geCt6oC8qf-12" value="PROJECT" style="ellipse;whiteSpace=wrap;html=1;" parent="1" vertex="1">
          <mxGeometry x="290" y="600" width="100" height="50" as="geometry" />
        </mxCell>
        <mxCell id="xgFi1MBsW7geCt6oC8qf-18" value="" style="group" parent="1" vertex="1" connectable="0">
          <mxGeometry x="360" y="200" width="110" height="60" as="geometry" />
        </mxCell>
        <mxCell id="xgFi1MBsW7geCt6oC8qf-1" value="Π" style="text;html=1;align=center;verticalAlign=middle;whiteSpace=wrap;rounded=0;fontSize=24;fontFamily=Times New Roman;" parent="xgFi1MBsW7geCt6oC8qf-18" vertex="1">
          <mxGeometry width="40" height="30" as="geometry" />
        </mxCell>
        <mxCell id="xgFi1MBsW7geCt6oC8qf-5" value="P.Pname&lt;div&gt;E.Fname&lt;/div&gt;&lt;div&gt;E.Lname&lt;/div&gt;" style="text;html=1;align=left;verticalAlign=top;resizable=0;points=[];autosize=1;strokeColor=none;fillColor=none;" parent="xgFi1MBsW7geCt6oC8qf-18" vertex="1">
          <mxGeometry x="40" width="70" height="60" as="geometry" />
        </mxCell>
        <mxCell id="8EqAWCXtx3R5UCm-wrOk-4" style="rounded=0;orthogonalLoop=1;jettySize=auto;html=1;exitX=0.5;exitY=1;exitDx=0;exitDy=0;entryX=0.5;entryY=0;entryDx=0;entryDy=0;endArrow=none;startFill=0;" edge="1" parent="1" source="xgFi1MBsW7geCt6oC8qf-3" target="8EqAWCXtx3R5UCm-wrOk-2">
          <mxGeometry relative="1" as="geometry" />
        </mxCell>
        <mxCell id="8EqAWCXtx3R5UCm-wrOk-5" style="rounded=0;orthogonalLoop=1;jettySize=auto;html=1;exitX=0.5;exitY=1;exitDx=0;exitDy=0;endArrow=none;startFill=0;" edge="1" parent="1" source="xgFi1MBsW7geCt6oC8qf-3" target="8EqAWCXtx3R5UCm-wrOk-3">
          <mxGeometry relative="1" as="geometry" />
        </mxCell>
        <mxCell id="xgFi1MBsW7geCt6oC8qf-3" value="⨝ E.Ssn = W.Essn" style="text;html=1;align=center;verticalAlign=middle;whiteSpace=wrap;rounded=0;fontSize=12;fontFamily=Helvetica;" parent="1" vertex="1">
          <mxGeometry x="320" y="280" width="120" height="30" as="geometry" />
        </mxCell>
        <mxCell id="8EqAWCXtx3R5UCm-wrOk-8" style="rounded=0;orthogonalLoop=1;jettySize=auto;html=1;exitX=0.5;exitY=1;exitDx=0;exitDy=0;entryX=0.5;entryY=0;entryDx=0;entryDy=0;endArrow=none;startFill=0;" edge="1" parent="1" source="8EqAWCXtx3R5UCm-wrOk-2" target="8EqAWCXtx3R5UCm-wrOk-6">
          <mxGeometry relative="1" as="geometry" />
        </mxCell>
        <mxCell id="8EqAWCXtx3R5UCm-wrOk-2" value="Π Essn, Pname" style="text;html=1;align=center;verticalAlign=middle;whiteSpace=wrap;rounded=0;fontSize=12;fontFamily=Helvetica;" vertex="1" parent="1">
          <mxGeometry x="200" y="360" width="120" height="30" as="geometry" />
        </mxCell>
        <mxCell id="8EqAWCXtx3R5UCm-wrOk-9" style="rounded=0;orthogonalLoop=1;jettySize=auto;html=1;exitX=0.5;exitY=1;exitDx=0;exitDy=0;entryX=0.5;entryY=0;entryDx=0;entryDy=0;endArrow=none;endFill=1;startFill=0;" edge="1" parent="1" source="8EqAWCXtx3R5UCm-wrOk-3" target="8EqAWCXtx3R5UCm-wrOk-7">
          <mxGeometry relative="1" as="geometry" />
        </mxCell>
        <mxCell id="8EqAWCXtx3R5UCm-wrOk-3" value="Π Ssn, Fname, Lname" style="text;html=1;align=center;verticalAlign=middle;whiteSpace=wrap;rounded=0;fontSize=12;fontFamily=Helvetica;" vertex="1" parent="1">
          <mxGeometry x="430" y="360" width="140" height="30" as="geometry" />
        </mxCell>
        <mxCell id="8EqAWCXtx3R5UCm-wrOk-12" style="rounded=0;orthogonalLoop=1;jettySize=auto;html=1;exitX=0.5;exitY=1;exitDx=0;exitDy=0;entryX=0.5;entryY=0;entryDx=0;entryDy=0;endArrow=none;startFill=0;" edge="1" parent="1" source="8EqAWCXtx3R5UCm-wrOk-6" target="8EqAWCXtx3R5UCm-wrOk-10">
          <mxGeometry relative="1" as="geometry" />
        </mxCell>
        <mxCell id="8EqAWCXtx3R5UCm-wrOk-13" style="rounded=0;orthogonalLoop=1;jettySize=auto;html=1;exitX=0.5;exitY=1;exitDx=0;exitDy=0;entryX=0.5;entryY=0;entryDx=0;entryDy=0;endArrow=none;startFill=0;" edge="1" parent="1" source="8EqAWCXtx3R5UCm-wrOk-6" target="8EqAWCXtx3R5UCm-wrOk-11">
          <mxGeometry relative="1" as="geometry" />
        </mxCell>
        <mxCell id="8EqAWCXtx3R5UCm-wrOk-6" value="⨝ W.Pno = P.Pnumber" style="text;html=1;align=center;verticalAlign=middle;whiteSpace=wrap;rounded=0;fontSize=12;fontFamily=Helvetica;" vertex="1" parent="1">
          <mxGeometry x="190" y="440" width="140" height="30" as="geometry" />
        </mxCell>
        <mxCell id="8EqAWCXtx3R5UCm-wrOk-14" style="rounded=0;orthogonalLoop=1;jettySize=auto;html=1;exitX=0.5;exitY=1;exitDx=0;exitDy=0;entryX=0.5;entryY=0;entryDx=0;entryDy=0;endArrow=none;startFill=0;" edge="1" parent="1" source="8EqAWCXtx3R5UCm-wrOk-7" target="xgFi1MBsW7geCt6oC8qf-9">
          <mxGeometry relative="1" as="geometry" />
        </mxCell>
        <mxCell id="8EqAWCXtx3R5UCm-wrOk-7" value="&lt;div style=&quot;text-align: start;&quot;&gt;&lt;font face=&quot;Arial, sans-serif&quot; color=&quot;#282828&quot;&gt;&lt;span style=&quot;background-color: rgb(255, 255, 255);&quot;&gt;σ E.Sec = &#39;F&#39;&lt;/span&gt;&lt;/font&gt;&lt;/div&gt;" style="text;html=1;align=center;verticalAlign=middle;whiteSpace=wrap;rounded=0;fontSize=12;fontFamily=Helvetica;" vertex="1" parent="1">
          <mxGeometry x="430" y="440" width="140" height="30" as="geometry" />
        </mxCell>
        <mxCell id="8EqAWCXtx3R5UCm-wrOk-17" style="edgeStyle=none;shape=connector;rounded=0;orthogonalLoop=1;jettySize=auto;html=1;exitX=0.5;exitY=1;exitDx=0;exitDy=0;entryX=0.5;entryY=0;entryDx=0;entryDy=0;strokeColor=default;align=center;verticalAlign=middle;fontFamily=Helvetica;fontSize=11;fontColor=default;labelBackgroundColor=default;startFill=0;endArrow=none;" edge="1" parent="1" source="8EqAWCXtx3R5UCm-wrOk-10" target="8EqAWCXtx3R5UCm-wrOk-16">
          <mxGeometry relative="1" as="geometry" />
        </mxCell>
        <mxCell id="8EqAWCXtx3R5UCm-wrOk-10" value="Π Essn, Pno" style="text;html=1;align=center;verticalAlign=middle;whiteSpace=wrap;rounded=0;fontSize=12;fontFamily=Helvetica;" vertex="1" parent="1">
          <mxGeometry x="120" y="520" width="120" height="30" as="geometry" />
        </mxCell>
        <mxCell id="8EqAWCXtx3R5UCm-wrOk-15" style="rounded=0;orthogonalLoop=1;jettySize=auto;html=1;exitX=0.5;exitY=1;exitDx=0;exitDy=0;entryX=0.5;entryY=0;entryDx=0;entryDy=0;endArrow=none;startFill=0;" edge="1" parent="1" source="8EqAWCXtx3R5UCm-wrOk-11" target="xgFi1MBsW7geCt6oC8qf-12">
          <mxGeometry relative="1" as="geometry" />
        </mxCell>
        <mxCell id="8EqAWCXtx3R5UCm-wrOk-11" value="Π Pname, Pnumber" style="text;html=1;align=center;verticalAlign=middle;whiteSpace=wrap;rounded=0;fontSize=12;fontFamily=Helvetica;" vertex="1" parent="1">
          <mxGeometry x="280" y="520" width="120" height="30" as="geometry" />
        </mxCell>
        <mxCell id="8EqAWCXtx3R5UCm-wrOk-18" style="edgeStyle=none;shape=connector;rounded=0;orthogonalLoop=1;jettySize=auto;html=1;exitX=0.5;exitY=1;exitDx=0;exitDy=0;entryX=0.5;entryY=0;entryDx=0;entryDy=0;strokeColor=default;align=center;verticalAlign=middle;fontFamily=Helvetica;fontSize=11;fontColor=default;labelBackgroundColor=default;startFill=0;endArrow=none;" edge="1" parent="1" source="8EqAWCXtx3R5UCm-wrOk-16" target="xgFi1MBsW7geCt6oC8qf-11">
          <mxGeometry relative="1" as="geometry" />
        </mxCell>
        <mxCell id="8EqAWCXtx3R5UCm-wrOk-16" value="&lt;span style=&quot;color: rgb(40, 40, 40); font-family: Arial, sans-serif; text-align: start; background-color: rgb(255, 255, 255);&quot;&gt;σ W.Hours &amp;lt; 40&lt;/span&gt;" style="text;html=1;align=center;verticalAlign=middle;whiteSpace=wrap;rounded=0;fontSize=12;fontFamily=Helvetica;" vertex="1" parent="1">
          <mxGeometry x="120" y="600" width="120" height="30" as="geometry" />
        </mxCell>
      </root>
    </mxGraphModel>
  </diagram>
</mxfile>
